Coordinates
version=1
nRows=4
nColumns=63
inDegrees=yes

Units are S.I. units (second, meters, Newtons, ...)
If the header above contains a line with 'inDegrees', this indicates whether rotational values are in degrees (yes) or radians (no).

endheader
time	pelvis_tilt	pelvis_list	pelvis_rotation	pelvis_tx	pelvis_ty	pelvis_tz	hip_flexion_r	hip_adduction_r	hip_rotation_r	knee_angle_r	knee_angle_r_beta	ankle_angle_r	subtalar_angle_r	mtp_angle_r	hip_flexion_l	hip_adduction_l	hip_rotation_l	knee_angle_l	knee_angle_l_beta	ankle_angle_l	subtalar_angle_l	mtp_angle_l	L5_S1_Flex_Ext	L5_S1_Lat_Bending	L5_S1_axial_rotation	L4_L5_Flex_Ext	L4_L5_Lat_Bending	L4_L5_axial_rotation	L3_L4_Flex_Ext	L3_L4_Lat_Bending	L3_L4_axial_rotation	L2_L3_Flex_Ext	L2_L3_Lat_Bending	L2_L3_axial_rotation	L1_L2_Flex_Ext	L1_L2_Lat_Bending	L1_L2_axial_rotation	L1_T12_Flex_Ext	L1_T12_Lat_Bending	L1_T12_axial_rotation	Abs_r3	Abs_r2	Abs_r1	Abs_t1	Abs_t2	neck_flexion	neck_bending	neck_rotation	arm_flex_r	arm_add_r	arm_rot_r	elbow_flex_r	pro_sup_r	wrist_flex_r	wrist_dev_r	arm_flex_l	arm_add_l	arm_rot_l	elbow_flex_l	pro_sup_l	wrist_flex_l	wrist_dev_l
      0.83333333	      1.43189221	     -5.19279383	     93.67250563	      0.43819905	      0.74868168	      0.99937864	      8.14115339	      3.26097343	      0.75701302	     16.79640277	      0.29315253	     31.58370724	     -8.13205748	      0.00000000	      7.80645877	     -2.38792631	      0.64740789	     17.97218521	      0.31367381	     35.25763714	     -4.16847279	      0.00000000	     -0.13713029	      0.28683223	      2.88884377	     -0.25466466	      0.38148686	      3.06939651	     -0.22529135	      0.69740387	      3.06939651	     -0.15672621	      0.69740387	      2.52773830	     -0.12733919	      0.58490827	      2.34718557	     -0.07835625	      0.44430312	      2.16663283	     -0.97950795	      3.24470350	     16.06688242	      0.00000000	      0.00000000	     10.66433931	     -3.02419354	     -3.17350831	    -11.70926077	    -12.43388151	     -4.98403352	     50.29518200	     86.85941886	     13.73866777	      8.92821137	     11.97106986	    -15.83946404	     65.78880614	     27.99801898	     87.24538461	    -17.07923659	    -23.05623294
      0.85000000	      1.47687677	     -4.81468077	     93.76886143	      0.43783037	      0.74861514	      0.99862546	      8.03471374	      3.36958074	      0.69494991	     17.30653001	      0.30205593	     32.14827734	     -8.30217367	      0.00000000	      7.69582131	     -2.41109121	      1.00847018	     18.34946441	      0.32025857	     35.85887405	     -4.02891294	      0.00000000	     -0.16636431	      0.28823848	      2.86111111	     -0.30895516	      0.38335718	      3.03993056	     -0.27331992	      0.70082305	      3.03993056	     -0.19013777	      0.70082305	      2.50347222	     -0.15448590	      0.58777592	      2.32465278	     -0.09506057	      0.44648141	      2.14583334	     -1.18832363	      3.26061138	     15.91264168	      0.00000000	      0.00000000	      9.54155191	     -2.74670317	     -3.42677619	    -11.82009069	    -12.48459714	     -4.90782025	     50.71441638	     86.89359414	     13.88484473	      8.69460685	     12.00346856	    -15.97441845	     65.52172255	     28.20737394	     87.17028526	    -17.18490509	    -23.16155936
      0.86666667	      1.68748454	     -4.63916537	     94.90649746	      0.43646203	      0.74825686	      0.99805892	      8.13785926	      3.50002787	     -0.63759992	     17.80486601	      0.31075353	     32.69422566	     -8.41264369	      0.00000000	      8.15478885	     -2.53165503	      1.96594032	     19.11921983	      0.33369334	     36.58188544	     -3.39331600	      0.00000000	     -0.16120397	      0.29676380	      2.55934967	     -0.29937190	      0.39469586	      2.71930902	     -0.26484201	      0.72155151	      2.71930902	     -0.18424002	      0.72155151	      2.23943096	     -0.14969401	      0.60516074	      2.07947160	     -0.09211195	      0.45968713	      1.91951225	     -1.15146386	      3.35705148	     14.23433503	      0.00000000	      0.00000000	      8.54901223	     -2.42134030	     -3.43083530	    -11.50940725	    -12.69196012	     -3.94488517	     50.56824575	     87.24854329	     14.29981575	      7.39093600	     11.40916347	    -16.20311215	     63.93693455	     28.66106084	     87.29432572	    -18.61286379	    -23.25462023
      0.88333333	      1.82185804	     -4.27129258	     95.35529927	      0.43587843	      0.74834537	      0.99682459	      7.97883413	      3.62155064	     -1.38565909	     18.19779216	      0.31761139	     33.14397112	     -8.23947861	      0.00000000	      8.06382135	     -2.63062452	      2.53918092	     19.46317789	      0.33969654	     37.11630025	     -3.18147166	      0.00000000	     -0.18275347	      0.30454254	      2.37726833	     -0.33939148	      0.40504157	      2.52584760	     -0.30024568	      0.74046472	      2.52584760	     -0.20886895	      0.74046472	      2.08010979	     -0.16970488	      0.62102314	      1.93153052	     -0.10442534	      0.47173639	      1.78295125	     -1.30538980	      3.44504608	     13.22165326	      0.00000000	      0.00000000	      7.40585906	     -1.85939074	     -2.77412394	    -11.22505753	    -12.94066370	     -2.80715228	     50.53063344	     87.46373239	     14.52466697	      6.50775481	     11.14511460	    -16.17566585	     63.67925925	     28.49386620	     87.59322938	    -20.26425338	    -23.42146806
